<svg width="20" height="20" viewBox="0 0 20 20" fill="none" xmlns="http://www.w3.org/2000/svg">
<g clip-path="url(#clip0_8_1386)">
<path fill-rule="evenodd" clip-rule="evenodd" d="M14.0833 1.66663C14.0833 1.25241 13.7475 0.916626 13.3333 0.916626C12.9191 0.916626 12.5833 1.25241 12.5833 1.66663V2.58329H7.41667V1.66663C7.41667 1.25241 7.08088 0.916626 6.66667 0.916626C6.25245 0.916626 5.91667 1.25241 5.91667 1.66663V2.58329H4.16667C2.83198 2.58329 1.75 3.66527 1.75 4.99996V8.33329V16.6666C1.75 18.0013 2.83198 19.0833 4.16667 19.0833H15.8333C17.168 19.0833 18.25 18.0013 18.25 16.6666V8.33329V4.99996C18.25 3.66527 17.168 2.58329 15.8333 2.58329H14.0833V1.66663ZM16.75 7.58329V4.99996C16.75 4.4937 16.3396 4.08329 15.8333 4.08329H14.0833V4.99996C14.0833 5.41417 13.7475 5.74996 13.3333 5.74996C12.9191 5.74996 12.5833 5.41417 12.5833 4.99996V4.08329H7.41667V4.99996C7.41667 5.41417 7.08088 5.74996 6.66667 5.74996C6.25245 5.74996 5.91667 5.41417 5.91667 4.99996V4.08329H4.16667C3.66041 4.08329 3.25 4.4937 3.25 4.99996V7.58329H16.75ZM3.25 9.08329H16.75V16.6666C16.75 17.1729 16.3396 17.5833 15.8333 17.5833H4.16667C3.66041 17.5833 3.25 17.1729 3.25 16.6666V9.08329Z" fill="#135E98"/>
<path d="M15.4167 19.2362C17.5261 19.2362 19.2361 17.5262 19.2361 15.4167C19.2361 13.3073 17.5261 11.5973 15.4167 11.5973C13.3073 11.5973 11.5972 13.3073 11.5972 15.4167C11.5972 17.5262 13.3073 19.2362 15.4167 19.2362Z" fill="white" stroke="#135E98" stroke-width="1.2" stroke-linecap="round" stroke-linejoin="round"/>
<path d="M17.0833 16.6667L15.4167 15.4167V13.75" fill="white"/>
<path d="M17.0833 16.6667L15.4167 15.4167V13.75" stroke="#135E98" stroke-width="1.1" stroke-linecap="round" stroke-linejoin="round"/>
</g>
<defs>
<clipPath id="clip0_8_1386">
<rect width="20" height="20" fill="white"/>
</clipPath>
</defs>
</svg>
