<svg width="40" height="40" viewBox="0 0 40 40" fill="none" xmlns="http://www.w3.org/2000/svg">
<path d="M21.667 3.33333H10.0003C9.11627 3.33333 8.26842 3.68452 7.6433 4.30964C7.01818 4.93476 6.66699 5.78261 6.66699 6.66666V33.3333C6.66699 34.2174 7.01818 35.0652 7.6433 35.6903C8.26842 36.3155 9.11627 36.6667 10.0003 36.6667H30.0003C30.8844 36.6667 31.7322 36.3155 32.3573 35.6903C32.9825 35.0652 33.3337 34.2174 33.3337 33.3333V15L21.667 3.33333Z" stroke="#135E98" stroke-width="2" stroke-linecap="round" stroke-linejoin="round"/>
<path d="M21.667 3.33333V15H33.3337" stroke="#135E98" stroke-width="2" stroke-linecap="round" stroke-linejoin="round"/>
<path d="M24.6667 20H15.3333C14.597 20 14 20.597 14 21.3333V30.6667C14 31.403 14.597 32 15.3333 32H24.6667C25.403 32 26 31.403 26 30.6667V21.3333C26 20.597 25.403 20 24.6667 20Z" stroke="#135E98" stroke-width="1.5" stroke-linecap="round" stroke-linejoin="round"/>
<path d="M17.667 24.6667C18.2193 24.6667 18.667 24.219 18.667 23.6667C18.667 23.1144 18.2193 22.6667 17.667 22.6667C17.1147 22.6667 16.667 23.1144 16.667 23.6667C16.667 24.219 17.1147 24.6667 17.667 24.6667Z" stroke="#135E98" stroke-linecap="round" stroke-linejoin="round"/>
<path d="M25.9997 28L22.6663 24.6667L15.333 32" stroke="#135E98" stroke-width="1.5" stroke-linecap="round" stroke-linejoin="round"/>
</svg>
