<svg width="16" height="17" viewBox="0 0 16 17" fill="none" xmlns="http://www.w3.org/2000/svg">
<g clip-path="url(#clip0_396_4224)">
<path fill-rule="evenodd" clip-rule="evenodd" d="M5.33335 1.23438C5.1932 1.23438 5.06202 1.27282 4.94979 1.33974L0.294583 3.99986C0.0609016 4.13339 -0.083313 4.3819 -0.083313 4.65104V15.3177C-0.083313 15.5851 0.0590058 15.8322 0.290242 15.9664C0.521478 16.1006 0.806664 16.1015 1.03879 15.9689L5.35696 13.5014L10.3178 15.9818C10.4151 16.033 10.5251 16.0635 10.6419 16.0673C10.6501 16.0676 10.6584 16.0677 10.6667 16.0677C10.6667 16.0677 10.6667 16.0677 10.6667 16.0677C10.8068 16.0677 10.938 16.0293 11.0502 15.9624L15.7055 13.3022C15.9391 13.1687 16.0834 12.9202 16.0834 12.651V1.98438C16.0834 1.71702 15.941 1.46988 15.7098 1.33569C15.4786 1.2015 15.1934 1.20055 14.9613 1.33319L10.6431 3.80072L5.68224 1.32029C5.57976 1.26634 5.46326 1.23541 5.33963 1.2344L5.33335 1.23438ZM11.4167 14.0253L14.5834 12.2158V3.27676L11.4167 5.08628V14.0253ZM9.91669 5.11457L6.08335 3.1979V12.1875L9.91669 14.1042V5.11457ZM1.41669 5.08628L4.58335 3.27676V12.2158L1.41669 14.0253V5.08628Z" fill="#135E98"/>
</g>
<defs>
<clipPath id="clip0_396_4224">
<rect width="16" height="16" fill="white" transform="translate(0 0.651123)"/>
</clipPath>
</defs>
</svg>
