<svg width="40" height="40" viewBox="0 0 40 40" fill="none" xmlns="http://www.w3.org/2000/svg">
<path d="M21.667 3.33333H10.0003C9.11627 3.33333 8.26842 3.68452 7.6433 4.30964C7.01818 4.93476 6.66699 5.78261 6.66699 6.66666V33.3333C6.66699 34.2174 7.01818 35.0652 7.6433 35.6903C8.26842 36.3155 9.11627 36.6667 10.0003 36.6667H30.0003C30.8844 36.6667 31.7322 36.3155 32.3573 35.6903C32.9825 35.0652 33.3337 34.2174 33.3337 33.3333V15L21.667 3.33333Z" stroke="#135E98" stroke-width="2" stroke-linecap="round" stroke-linejoin="round"/>
<path d="M21.667 3.33333V15H33.3337" stroke="#135E98" stroke-width="2" stroke-linecap="round" stroke-linejoin="round"/>
<path d="M16 19.0833C16 18.2979 16.864 17.819 17.53 18.2353L25.8432 23.4311C26.4699 23.8227 26.4699 24.7354 25.8432 25.1271L17.53 30.3228C16.864 30.7391 16 30.2602 16 29.4748V19.0833Z" stroke="#135E98" stroke-width="1.5" stroke-linecap="round" stroke-linejoin="round"/>
</svg>
