<svg width="46" height="44" viewBox="0 0 46 44" fill="none" xmlns="http://www.w3.org/2000/svg">
<g clip-path="url(#clip0_406_679)">
<rect width="46" height="44" fill="white"/>
<path fill-rule="evenodd" clip-rule="evenodd" d="M0 43.9869H45.9995V20.9634H0V43.9869Z" fill="#182E66"/>
<path fill-rule="evenodd" clip-rule="evenodd" d="M22.0033 4.36767L19.7939 14.7142H17.1215L19.3311 4.36767H22.0033ZM33.2459 11.0486L34.6523 7.16314L35.4618 11.0486H33.2459ZM36.2284 14.7142H38.6994L36.5407 4.36767H34.2614C33.7477 4.36767 33.3146 4.66599 33.123 5.12605L29.1131 14.7142H31.9198L32.4769 13.1688H35.9048L36.2284 14.7142ZM29.2525 11.3362C29.2641 8.60591 25.4839 8.45442 25.5093 7.23458C25.5174 6.86365 25.8703 6.46875 26.6423 6.36776C27.0249 6.31843 28.0809 6.27864 29.2778 6.83084L29.7459 4.63598C29.1031 4.40304 28.2758 4.17871 27.2464 4.17871C24.6046 4.17871 22.7463 5.58425 22.7314 7.59854C22.7144 9.08808 24.0589 9.91883 25.0697 10.4147C26.1119 10.9218 26.4611 11.2471 26.456 11.6999C26.4488 12.3941 25.625 12.7015 24.8578 12.7131C23.5136 12.7341 22.7344 12.3492 22.1134 12.0592L21.6283 14.3274C22.2537 14.6141 23.406 14.8636 24.5993 14.8764C27.4078 14.8764 29.2441 13.4874 29.2525 11.3362ZM18.1848 4.36767L13.855 14.7142H11.0307L8.89979 6.45689C8.77061 5.94913 8.65794 5.7625 8.26508 5.54794C7.62247 5.19842 6.56168 4.87147 5.62891 4.66809L5.6921 4.36767H10.2391C10.8183 4.36767 11.3394 4.75372 11.4721 5.42205L12.5977 11.4095L15.3774 4.36767H18.1848Z" fill="#182E66"/>
<path fill-rule="evenodd" clip-rule="evenodd" d="M10.7168 33.7231C11.0185 33.9016 11.4906 34.0566 11.978 34.0566C12.5816 34.0566 12.9222 33.7696 12.9222 33.3433C12.9222 32.948 12.659 32.7155 12.0013 32.4753C11.1345 32.1728 10.585 31.7079 10.585 30.9637C10.585 30.1032 11.2971 29.46 12.4348 29.46C12.9996 29.46 13.4096 29.584 13.6805 29.7157L13.4563 30.4908C13.2628 30.3901 12.899 30.2428 12.4116 30.2428C11.8077 30.2428 11.5524 30.5607 11.5524 30.8706C11.5524 31.2739 11.8542 31.4598 12.5507 31.7232C13.4563 32.0721 13.8896 32.5296 13.8896 33.2735C13.8896 34.1185 13.2549 34.8394 11.9162 34.8394C11.3589 34.8394 10.7862 34.6844 10.5 34.5141L10.7168 33.7231Z" fill="#FFFFFE"/>
<path fill-rule="evenodd" clip-rule="evenodd" d="M17.5892 32.4424H15.6235V33.9773H17.8215V34.7601H14.6719V29.5356H17.7053V30.3185H15.6235V31.6672H17.5892V32.4424Z" fill="#FFFFFE"/>
<path fill-rule="evenodd" clip-rule="evenodd" d="M22.3191 34.6059C22.0947 34.7144 21.5994 34.8384 20.9649 34.8384C19.3089 34.8384 18.3027 33.7996 18.3027 32.2107C18.3027 30.4899 19.5022 29.459 21.0964 29.459C21.7232 29.459 22.1644 29.583 22.3577 29.6838L22.1567 30.4433C21.9091 30.3349 21.5608 30.2418 21.1352 30.2418C20.0749 30.2418 19.3089 30.9085 19.3089 32.1642C19.3089 33.3114 19.9743 34.04 21.1273 34.04C21.5065 34.04 21.9091 33.9625 22.1644 33.8538L22.3191 34.6059Z" fill="#FFFFFE"/>
<path fill-rule="evenodd" clip-rule="evenodd" d="M23.9967 29.5356V32.582C23.9967 33.6052 24.4224 34.0778 25.0647 34.0778C25.7533 34.0778 26.1636 33.6052 26.1636 32.582V29.5356H27.1155V32.5198C27.1155 34.1323 26.2875 34.8453 25.0338 34.8453C23.8265 34.8453 23.0449 34.1711 23.0449 32.5278V29.5356H23.9967Z" fill="#FFFFFE"/>
<path fill-rule="evenodd" clip-rule="evenodd" d="M29.0746 31.9168H29.6396C30.2822 31.9168 30.6769 31.5759 30.6769 31.0565C30.6769 30.4906 30.2822 30.2192 29.663 30.2192C29.361 30.2192 29.1677 30.2425 29.0746 30.266V31.9168ZM28.1309 29.6147C28.4942 29.5448 29.0207 29.4985 29.5701 29.4985C30.3207 29.4985 30.8239 29.6223 31.1796 29.9172C31.4659 30.1573 31.6285 30.5215 31.6285 30.9713C31.6285 31.6455 31.172 32.1027 30.6769 32.2735V32.2966C31.0558 32.4362 31.2805 32.8004 31.4043 33.3042C31.5744 33.9555 31.7137 34.5601 31.8143 34.7616H30.8393C30.7617 34.6066 30.6302 34.1803 30.4908 33.5292C30.3361 32.8469 30.0963 32.63 29.5548 32.6144H29.0746V34.7616H28.1309V29.6147Z" fill="#FFFFFE"/>
<path fill-rule="evenodd" clip-rule="evenodd" d="M35.3765 32.4424H33.4108V33.9773H35.6086V34.7601H32.459V29.5356H35.4924V30.3185H33.4108V31.6672H35.3765V32.4424Z" fill="#FFFFFE"/>
</g>
<defs>
<clipPath id="clip0_406_679">
<rect width="46" height="44" fill="white"/>
</clipPath>
</defs>
</svg>
