<svg width="43" height="44" viewBox="0 0 43 44" fill="none" xmlns="http://www.w3.org/2000/svg">
<rect width="43" height="44" fill="white"/>
<path d="M33.8509 34.5651H33.799V34.7086H33.773V34.5651H33.7211V34.5383H33.8533L33.8509 34.5651ZM34.0539 34.7086H34.0279V34.5699L33.9807 34.6916H33.9524L33.9052 34.5699V34.7086H33.8792V34.5383H33.9194L33.9666 34.66L34.0138 34.5383H34.0539V34.7086ZM9.19028 34.7086H8.82912V30.4496H9.19028V34.7086ZM11.9356 30.4496C12.2515 30.4447 12.566 30.4949 12.8657 30.5981C13.128 30.6874 13.3692 30.8325 13.5738 31.024C13.7687 31.2113 13.921 31.4407 14.02 31.6957C14.2284 32.265 14.2284 32.8932 14.02 33.4626C13.9211 33.7176 13.7687 33.947 13.5738 34.1343C13.3692 34.3257 13.128 34.4708 12.8657 34.5602C12.566 34.6633 12.2515 34.7135 11.9356 34.7086H10.4272V30.4496H11.9356ZM10.7884 30.8025V34.3558H11.9356C12.2066 34.3607 12.4764 34.3179 12.7335 34.2292C12.9494 34.1536 13.1473 34.0316 13.3142 33.8714C13.4726 33.7151 13.5945 33.5237 13.6706 33.3117C13.8305 32.8389 13.8305 32.3242 13.6706 31.8514C13.5943 31.6388 13.4725 31.4466 13.3142 31.2892C13.1477 31.1285 12.9497 31.0064 12.7335 30.9315C12.4769 30.8444 12.208 30.8025 11.938 30.8074L10.7884 30.8025ZM18.5782 30.4009C18.7514 30.4004 18.9241 30.4208 19.0928 30.4618C19.2564 30.5004 19.4149 30.5592 19.5649 30.637C19.7064 30.711 19.838 30.8035 19.9567 30.912C20.073 31.0184 20.1739 31.1413 20.2565 31.2771L19.9567 31.4839C19.8859 31.3723 19.8009 31.2708 19.7042 31.1822C19.6068 31.0924 19.4989 31.0156 19.3831 30.9534C19.2634 30.8898 19.1365 30.8416 19.0054 30.8098C18.8686 30.7758 18.7284 30.7586 18.5876 30.7587C18.3526 30.7567 18.1194 30.8013 17.9007 30.8901C17.6941 30.9735 17.5062 31.0993 17.3483 31.26C17.1896 31.4242 17.0643 31.6195 16.9801 31.8344C16.8008 32.312 16.8008 32.8414 16.9801 33.319C17.0643 33.5339 17.1895 33.7293 17.3483 33.8933C17.5062 34.054 17.6941 34.1799 17.9007 34.2633C18.1194 34.3521 18.3526 34.3967 18.5876 34.3947C18.7275 34.3951 18.8669 34.3788 19.0031 34.346C19.2657 34.2866 19.5094 34.1593 19.7112 33.9761C19.8086 33.8871 19.8936 33.7848 19.9638 33.6719L20.2589 33.8933C20.1731 34.0259 20.0707 34.1462 19.9544 34.2511C19.8359 34.3575 19.7051 34.4483 19.5649 34.5212C19.4196 34.5978 19.2658 34.6558 19.1069 34.694C18.6578 34.7995 18.1884 34.7639 17.7591 34.5918C17.509 34.4899 17.2811 34.3376 17.0887 34.144C16.8971 33.9477 16.7461 33.7134 16.6449 33.4553C16.4307 32.8895 16.4307 32.2614 16.6449 31.6957C16.7461 31.4375 16.8971 31.2032 17.0887 31.0069C17.2811 30.8133 17.509 30.6611 17.7591 30.5591C18.023 30.4525 18.3042 30.3988 18.5876 30.4009H18.5782ZM21.4722 32.3479C21.5251 32.2576 21.5903 32.1757 21.6658 32.1045C21.7365 32.0376 21.816 31.981 21.9018 31.9366C21.9882 31.8932 22.0794 31.8605 22.1733 31.8393C22.2663 31.8183 22.3613 31.8077 22.4565 31.8076C22.6172 31.8059 22.777 31.8331 22.9287 31.8879C23.066 31.9375 23.1921 32.0153 23.2993 32.1167C23.4028 32.2182 23.4834 32.3421 23.5353 32.4793C23.5944 32.6343 23.6232 32.7997 23.6203 32.9661V34.7208H23.2827V33.0732C23.2846 32.9409 23.2646 32.8092 23.2237 32.6838C23.1877 32.5733 23.128 32.4726 23.049 32.3893C22.9698 32.307 22.8739 32.2439 22.7681 32.2043C22.647 32.1599 22.519 32.1385 22.3905 32.1411C22.2662 32.1401 22.1429 32.1632 22.0269 32.2092C21.9168 32.2529 21.8165 32.3191 21.7319 32.4039C21.6469 32.4898 21.5794 32.5924 21.5336 32.7057C21.4842 32.8274 21.4593 32.9582 21.4604 33.0902V34.7208H21.1252V30.3401H21.4604L21.4722 32.3479ZM25.825 31.8076C26.002 31.8058 26.1773 31.8423 26.3396 31.9147C26.4954 31.9848 26.6353 32.0876 26.7504 32.2165C26.8694 32.3513 26.9623 32.5082 27.0242 32.6789C27.093 32.8672 27.1281 33.0667 27.1281 33.2679C27.1281 33.2946 27.1281 33.319 27.1281 33.3433C27.1281 33.3677 27.1281 33.3896 27.1281 33.4115H24.8006C24.8097 33.5648 24.8465 33.715 24.9092 33.8544C24.9659 33.9797 25.0461 34.0922 25.1452 34.1854C25.2421 34.2753 25.3552 34.3448 25.478 34.3898C25.606 34.4371 25.741 34.461 25.877 34.4604C26.0565 34.4635 26.2346 34.4261 26.3987 34.3509C26.553 34.2768 26.6936 34.1755 26.8141 34.0515L26.9935 34.2949C26.9119 34.3807 26.8217 34.4574 26.7244 34.5237C26.6362 34.5827 26.542 34.6316 26.4435 34.6697C26.3496 34.7055 26.2523 34.7308 26.1532 34.7452C26.0546 34.7595 25.9552 34.7668 25.8557 34.7671C25.6643 34.7694 25.4742 34.733 25.2963 34.66C25.1307 34.5916 24.9804 34.4889 24.8549 34.3582C24.7291 34.2251 24.6311 34.0669 24.5669 33.8933C24.496 33.7023 24.4607 33.4992 24.463 33.2946C24.4608 33.0917 24.496 32.8902 24.5669 32.7008C24.6288 32.5241 24.7243 32.362 24.8478 32.2238C24.9716 32.092 25.1202 31.9876 25.2845 31.9171C25.4582 31.84 25.6453 31.8002 25.8345 31.8003L25.825 31.8076ZM25.825 32.1143C25.6925 32.1131 25.5609 32.1387 25.4379 32.1897C25.323 32.2378 25.2181 32.308 25.1287 32.3966C25.0385 32.4869 24.9649 32.5932 24.9115 32.7105C24.8538 32.8372 24.8171 32.9729 24.8029 33.1121H26.7881C26.7784 32.972 26.7457 32.8345 26.6914 32.7057C26.6418 32.5886 26.5713 32.4821 26.4836 32.3917C26.3087 32.2125 26.0717 32.1126 25.825 32.1143ZM29.1865 31.8076C29.3832 31.8058 29.5782 31.8447 29.7601 31.922C29.9328 31.9956 30.087 32.1088 30.2109 32.253L29.9938 32.4964C29.8891 32.3873 29.7659 32.2991 29.6302 32.236C29.488 32.1726 29.3343 32.1411 29.1794 32.1435C29.0342 32.1428 28.8904 32.1726 28.7568 32.2311C28.6289 32.288 28.5133 32.3707 28.4169 32.4745C28.3152 32.5785 28.2349 32.7027 28.1809 32.8395C28.0726 33.1369 28.0726 33.4646 28.1809 33.7619C28.2822 34.0336 28.4869 34.2508 28.7474 34.3631C28.8809 34.4218 29.0248 34.4516 29.1699 34.4507C29.3268 34.4525 29.4822 34.4193 29.6255 34.3533C29.7621 34.2904 29.8867 34.2031 29.9938 34.0953L30.2039 34.3387C30.0793 34.4822 29.9253 34.5953 29.753 34.6697C29.572 34.747 29.3777 34.7859 29.1817 34.7841C28.9852 34.7865 28.7902 34.7485 28.6081 34.6721C28.2675 34.5294 27.9987 34.2487 27.8646 33.8958C27.725 33.518 27.725 33.1005 27.8646 32.7227C27.9979 32.3687 28.2669 32.087 28.6081 31.9439C28.7909 31.8554 28.9893 31.8065 29.1912 31.8003L29.1865 31.8076ZM31.3416 33.061H31.7925L32.9728 31.8441H33.3977L32.0758 33.1949L33.4213 34.7062H32.994L31.8137 33.3652H31.3629V34.7062H31.0088V30.3255H31.344L31.3416 33.061ZM12.3227 28.2617V26.8014C12.3394 26.553 12.2516 26.3092 12.0817 26.1321C11.9118 25.9551 11.6763 25.862 11.4352 25.8766C11.1174 25.8551 10.8135 26.0137 10.642 26.2903C10.4857 26.0219 10.1995 25.8632 9.89609 25.8766C9.63192 25.8628 9.38044 25.9943 9.23513 26.2222V25.935H8.74414V28.2617H9.23985V26.9718C9.21851 26.8107 9.26801 26.6482 9.37486 26.5286C9.48171 26.409 9.63475 26.3449 9.79222 26.3536C10.118 26.3536 10.2832 26.5727 10.2832 26.9669V28.2617H10.7789V26.9718C10.7585 26.8109 10.8083 26.6489 10.9149 26.5295C11.0216 26.4102 11.1741 26.3458 11.3313 26.3536C11.6665 26.3536 11.827 26.5727 11.827 26.9669V28.2617H12.3227ZM19.6546 25.9277H18.852V25.2219H18.3563V25.9277H17.8983V26.3828H18.3563V27.4439C18.3563 27.9842 18.5593 28.3055 19.14 28.3055C19.3569 28.3062 19.5697 28.2438 19.7537 28.1254L19.6121 27.6922C19.4836 27.7792 19.3358 27.8311 19.1825 27.8431C18.9464 27.8431 18.8567 27.6873 18.8567 27.4537V26.3828H19.6546V25.9277ZM23.8422 25.8693C23.5983 25.8619 23.3701 25.9927 23.2473 26.21V25.9277H22.7611V28.2544H23.2521V26.9499C23.2521 26.5654 23.4126 26.3512 23.7242 26.3512C23.8292 26.3497 23.9334 26.3696 24.031 26.4096L24.1821 25.9229C24.07 25.8815 23.9518 25.8601 23.8327 25.8596L23.8422 25.8693ZM17.5112 26.1127C17.2333 25.9423 16.9137 25.8578 16.5906 25.8693C16.0193 25.8693 15.6464 26.1516 15.6464 26.614C15.6464 26.9937 15.9202 27.2273 16.4254 27.3003L16.6614 27.3344C16.9305 27.3734 17.058 27.4464 17.058 27.5778C17.058 27.7579 16.8786 27.8601 16.5434 27.8601C16.2738 27.8682 16.0094 27.7824 15.7927 27.6167L15.5567 28.011C15.8427 28.2169 16.1852 28.3227 16.5339 28.3128C17.1854 28.3128 17.5631 27.9964 17.5631 27.5535C17.5631 27.1105 17.2657 26.9304 16.7747 26.8574L16.5387 26.8233C16.3262 26.7941 16.1563 26.7503 16.1563 26.5946C16.1563 26.4388 16.3168 26.322 16.5859 26.322C16.8346 26.325 17.0784 26.3937 17.294 26.5216L17.5112 26.1127ZM30.6618 25.8693C30.4179 25.8619 30.1897 25.9927 30.0669 26.21V25.9277H29.5807V28.2544H30.0717V26.9499C30.0717 26.5654 30.2322 26.3512 30.5438 26.3512C30.6488 26.3497 30.7531 26.3696 30.8506 26.4096L31.0017 25.9229C30.8896 25.8815 30.7715 25.8601 30.6524 25.8596L30.6618 25.8693ZM24.3355 27.0862C24.3237 27.4168 24.4476 27.7372 24.6767 27.9688C24.9059 28.2004 25.2191 28.3218 25.5394 28.303C25.8342 28.3185 26.1239 28.2195 26.3514 28.0256L26.1154 27.6167C25.9457 27.7502 25.7387 27.8236 25.5253 27.826C25.1489 27.7946 24.859 27.4706 24.859 27.0813C24.859 26.692 25.1489 26.368 25.5253 26.3366C25.7387 26.339 25.9457 26.4124 26.1154 26.5459L26.3514 26.137C26.1239 25.9431 25.8342 25.8441 25.5394 25.8596C25.2191 25.8409 24.9059 25.9622 24.6767 26.1938C24.4476 26.4254 24.3237 26.7458 24.3355 27.0764V27.0862ZM28.9339 27.0862V25.9229H28.4429V26.2052C28.2737 25.9808 28.0102 25.854 27.7347 25.8644C27.0829 25.8644 26.5545 26.4093 26.5545 27.0813C26.5545 27.7534 27.0829 28.2982 27.7347 28.2982C28.0102 28.3087 28.2737 28.1819 28.4429 27.9575V28.2398H28.9339V27.0862ZM27.1068 27.0862C27.1287 26.7042 27.4426 26.4104 27.8134 26.4247C28.1843 26.4391 28.4759 26.7564 28.4699 27.1389C28.4639 27.5215 28.1625 27.8289 27.7914 27.8309C27.6024 27.8334 27.4211 27.7544 27.2911 27.6129C27.1611 27.4715 27.0943 27.2806 27.1068 27.0862ZM21.1819 25.8693C20.53 25.8787 20.009 26.4312 20.0181 27.1032C20.0272 27.7753 20.5631 28.3125 21.2149 28.303C21.5517 28.3153 21.8811 28.1992 22.1402 27.9769L21.9042 27.6021C21.7178 27.7563 21.4869 27.8419 21.2479 27.8455C20.9105 27.8754 20.6112 27.623 20.5728 27.276H22.2512C22.2512 27.2127 22.2512 27.1495 22.2512 27.0813C22.2512 26.3512 21.8121 25.8644 21.1795 25.8644L21.1819 25.8693ZM21.1819 26.322C21.3302 26.3187 21.4738 26.3764 21.5809 26.4823C21.6881 26.5882 21.75 26.7336 21.7531 26.8866H20.5728C20.5906 26.5617 20.8569 26.3109 21.1724 26.322H21.1819ZM33.4968 27.091V24.9932H33.0058V26.21C32.8367 25.9856 32.5731 25.8588 32.2977 25.8693C31.6458 25.8693 31.1174 26.4141 31.1174 27.0862C31.1174 27.7582 31.6458 28.303 32.2977 28.303C32.5731 28.3135 32.8367 28.1867 33.0058 27.9623V28.2446H33.4968V27.091ZM31.6698 27.091C31.6916 26.7091 32.0055 26.4152 32.3764 26.4296C32.7472 26.4439 33.0389 26.7612 33.0329 27.1438C33.0269 27.5263 32.7254 27.8338 32.3543 27.8358C32.1654 27.8382 31.984 27.7592 31.854 27.6178C31.724 27.4764 31.6572 27.2854 31.6698 27.091ZM15.0916 27.091V25.9277H14.6007V26.21C14.4315 25.9856 14.168 25.8588 13.8925 25.8693C13.2406 25.8693 12.7122 26.4141 12.7122 27.0862C12.7122 27.7582 13.2406 28.303 13.8925 28.303C14.168 28.3135 14.4315 28.1867 14.6007 27.9623V28.2446H15.0916V27.091ZM13.2646 27.091C13.2864 26.7091 13.6004 26.4152 13.9712 26.4296C14.342 26.4439 14.6337 26.7612 14.6277 27.1438C14.6217 27.5263 14.3202 27.8338 13.9491 27.8358C13.7602 27.8382 13.5788 27.7592 13.4488 27.6178C13.3189 27.4764 13.2521 27.2854 13.2646 27.091ZM34.3136 27.9161C34.3443 27.9157 34.3747 27.9215 34.4033 27.9331C34.4304 27.9445 34.4552 27.961 34.4764 27.9818C34.4972 28.0028 34.514 28.0275 34.526 28.0548C34.5502 28.1123 34.5502 28.1775 34.526 28.2349C34.514 28.2622 34.4972 28.2869 34.4764 28.3079C34.4552 28.3287 34.4304 28.3452 34.4033 28.3566C34.375 28.3694 34.3445 28.3761 34.3136 28.3761C34.2222 28.3753 34.1395 28.3204 34.1011 28.2349C34.0772 28.1774 34.0772 28.1123 34.1011 28.0548C34.1131 28.0275 34.1299 28.0028 34.1507 27.9818C34.1719 27.961 34.1968 27.9445 34.2239 27.9331C34.2524 27.9215 34.2829 27.9157 34.3136 27.9161ZM34.3136 28.3274C34.3371 28.3275 34.3605 28.3226 34.382 28.3128C34.4023 28.3034 34.4207 28.2902 34.4363 28.2738C34.4975 28.205 34.4975 28.0993 34.4363 28.0305C34.4208 28.014 34.4024 28.0008 34.382 27.9915C34.3604 27.9818 34.3371 27.9769 34.3136 27.9769C34.29 27.9771 34.2668 27.982 34.2451 27.9915C34.2239 28.0005 34.2046 28.0137 34.1885 28.0305C34.1272 28.0993 34.1272 28.205 34.1885 28.2738C34.2047 28.2905 34.2239 28.3038 34.2451 28.3128C34.2666 28.3232 34.2899 28.329 34.3136 28.3298V28.3274ZM34.3277 28.0378C34.3498 28.0367 34.3715 28.0436 34.3891 28.0572C34.4038 28.0697 34.4117 28.0888 34.4103 28.1083C34.411 28.1247 34.405 28.1406 34.3938 28.1522C34.3801 28.165 34.3627 28.1727 34.3443 28.1741L34.4127 28.2544H34.3584L34.2947 28.1741H34.2734V28.2544H34.2286V28.0402L34.3277 28.0378ZM34.2758 28.0791V28.1376H34.3277C34.337 28.1404 34.3468 28.1404 34.3561 28.1376C34.3594 28.1307 34.3594 28.1225 34.3561 28.1156C34.3594 28.1088 34.3594 28.1006 34.3561 28.0937C34.3468 28.0909 34.337 28.0909 34.3277 28.0937L34.2758 28.0791Z" fill="black"/>
<path d="M24.7971 8.29248H17.3438V22.1151H24.7971V8.29248Z" fill="#FF5F00"/>
<path d="M17.5351 15.2043C17.5323 12.553 18.7302 10.0477 20.7834 8.41069C17.2964 5.62702 12.2889 6.03248 9.28007 9.34214C6.27123 12.6518 6.27123 17.7544 9.28007 21.0641C12.2889 24.3737 17.2964 24.7792 20.7834 21.9955C18.7309 20.3591 17.533 17.8548 17.5351 15.2043Z" fill="#EB001B"/>
<path d="M35.1165 15.2043C35.1165 18.5116 33.1799 21.5285 30.1292 22.9738C27.0786 24.419 23.4495 24.0389 20.7832 21.9948C22.9202 20.3571 24.1679 17.8535 24.1679 15.2031C24.1679 12.5528 22.9202 10.0491 20.7832 8.41142C23.4495 6.36734 27.0786 5.98721 30.1292 7.43247C33.1799 8.87773 35.1165 11.8946 35.1165 15.2019V15.2043Z" fill="#F79E1B"/>
</svg>
