<svg aria-hidden="true" xmlns="http://www.w3.org/2000/svg" xmlns:xlink="http://www.w3.org/1999/xlink"><symbol viewBox="0 0 24 24" id="app" xmlns="http://www.w3.org/2000/svg">
<path d="M10 3H3V10H10V3Z" stroke-width="2" stroke-linecap="round" stroke-linejoin="round"/>
<path d="M21 3H14V10H21V3Z" stroke-width="2" stroke-linecap="round" stroke-linejoin="round"/>
<path d="M21 14H14V21H21V14Z" stroke-width="2" stroke-linecap="round" stroke-linejoin="round"/>
<path d="M10 14H3V21H10V14Z" stroke-width="2" stroke-linecap="round" stroke-linejoin="round"/>
</symbol><symbol viewBox="0 0 14 24" id="arrow-next" xmlns="http://www.w3.org/2000/svg">
<path d="M2 22L12 12L2 2" stroke-width="3" stroke-linecap="round" stroke-linejoin="round"/>
</symbol><symbol viewBox="0 0 14 24" id="arrow-prev" xmlns="http://www.w3.org/2000/svg">
<path d="M12 2L2 12L12 22" stroke-width="3" stroke-linecap="round" stroke-linejoin="round"/>
</symbol><symbol viewBox="0 0 24 24" id="broadcast" xmlns="http://www.w3.org/2000/svg">
<path d="M2 16.1C2.96089 16.296 3.84294 16.7702 4.53638 17.4636C5.22982 18.1571 5.70403 19.0391 5.9 20M2 12.05C4.03079 12.2759 5.92428 13.186 7.36911 14.6309C8.81395 16.0757 9.72414 17.9692 9.95 20M2 8V6C2 5.46957 2.21071 4.96086 2.58579 4.58579C2.96086 4.21071 3.46957 4 4 4H20C20.5304 4 21.0391 4.21071 21.4142 4.58579C21.7893 4.96086 22 5.46957 22 6V18C22 18.5304 21.7893 19.0391 21.4142 19.4142C21.0391 19.7893 20.5304 20 20 20H14" stroke-width="2" stroke-linecap="round" stroke-linejoin="round"/>
<path d="M2 20H2.01" stroke-width="2" stroke-linecap="round" stroke-linejoin="round"/>
</symbol><symbol viewBox="0 0 24 24" id="calendar" xmlns="http://www.w3.org/2000/svg">
<path fill-rule="evenodd" clip-rule="evenodd" d="M17 2C17 1.44772 16.5523 1 16 1C15.4477 1 15 1.44772 15 2V3H9V2C9 1.44772 8.55228 1 8 1C7.44772 1 7 1.44772 7 2V3H5C3.34315 3 2 4.34315 2 6V10V20C2 21.6569 3.34315 23 5 23H19C20.6569 23 22 21.6569 22 20V10V6C22 4.34315 20.6569 3 19 3H17V2ZM20 9V6C20 5.44771 19.5523 5 19 5H17V6C17 6.55228 16.5523 7 16 7C15.4477 7 15 6.55228 15 6V5H9V6C9 6.55228 8.55228 7 8 7C7.44772 7 7 6.55228 7 6V5H5C4.44772 5 4 5.44771 4 6V9H20ZM4 11H20V20C20 20.5523 19.5523 21 19 21H5C4.44772 21 4 20.5523 4 20V11Z"/>
</symbol><symbol viewBox="0 0 24 24" id="chrome" xmlns="http://www.w3.org/2000/svg">
<path d="M12 22C17.5228 22 22 17.5228 22 12C22 6.47715 17.5228 2 12 2C6.47715 2 2 6.47715 2 12C2 17.5228 6.47715 22 12 22Z" stroke-width="2" stroke-linecap="round" stroke-linejoin="round"/>
<path d="M12 16C14.2091 16 16 14.2091 16 12C16 9.79086 14.2091 8 12 8C9.79086 8 8 9.79086 8 12C8 14.2091 9.79086 16 12 16Z" stroke-width="2" stroke-linecap="round" stroke-linejoin="round"/>
<path d="M21.17 8H12" stroke-width="2" stroke-linecap="round" stroke-linejoin="round"/>
<path d="M3.94922 6.06006L8.53922 14.0001" stroke-width="2" stroke-linecap="round" stroke-linejoin="round"/>
<path d="M10.8809 21.94L15.4609 14" stroke-width="2" stroke-linecap="round" stroke-linejoin="round"/>
</symbol><symbol viewBox="0 0 17 16" id="close" xmlns="http://www.w3.org/2000/svg">
<path d="M14.4168 7.99998C14.4168 11.2677 11.7678 13.9166 8.50016 13.9166C5.23248 13.9166 2.5835 11.2677 2.5835 7.99998C2.5835 4.7323 5.23248 2.08331 8.50016 2.08331C11.7678 2.08331 14.4168 4.7323 14.4168 7.99998Z" stroke-width="1.5" stroke-linecap="round" stroke-linejoin="round"/>
<path d="M10.5 6L6.5 10" stroke-width="1.5" stroke-linecap="round" stroke-linejoin="round"/>
<path d="M6.5 6L10.5 10" stroke-width="1.5" stroke-linecap="round" stroke-linejoin="round"/>
</symbol><symbol viewBox="0 0 24 24" id="contacts" xmlns="http://www.w3.org/2000/svg">
<path d="M18 18.7083C18 17.0886 16.8283 15 15 15H9C7.17172 15 6 17.0886 6 18.7083M3 12C3 7.02944 7.02944 3 12 3C16.9706 3 21 7.02944 21 12C21 16.9706 16.9706 21 12 21C7.02944 21 3 16.9706 3 12ZM15 9C15 10.6569 13.6569 12 12 12C10.3431 12 9 10.6569 9 9C9 7.34315 10.3431 6 12 6C13.6569 6 15 7.34315 15 9Z" stroke-width="1.5"/>
</symbol><symbol viewBox="0 0 24 24" id="dashboard" xmlns="http://www.w3.org/2000/svg">
<path d="M21.2104 15.89C20.5742 17.3944 19.5792 18.7202 18.3123 19.7513C17.0454 20.7823 15.5452 21.4874 13.9428 21.8047C12.3405 22.1221 10.6848 22.0421 9.12055 21.5718C7.55627 21.1014 6.13103 20.255 4.96942 19.1066C3.80782 17.9582 2.94522 16.5427 2.45704 14.9839C1.96886 13.4251 1.86996 11.7704 2.169 10.1646C2.46804 8.55874 3.1559 7.05058 4.17245 5.77199C5.189 4.49339 6.50329 3.48327 8.0004 2.82996" stroke-width="2" stroke-linecap="round" stroke-linejoin="round"/>
<path d="M22 12C22 10.6868 21.7413 9.38642 21.2388 8.17317C20.7362 6.95991 19.9997 5.85752 19.0711 4.92893C18.1425 4.00035 17.0401 3.26375 15.8268 2.7612C14.6136 2.25866 13.3132 2 12 2V12H22Z" stroke-width="2" stroke-linecap="round" stroke-linejoin="round"/>
</symbol><symbol viewBox="0 0 20 20" id="delete" xmlns="http://www.w3.org/2000/svg">
<path d="M2.5 5H4.16667H17.5" stroke-width="1.5" stroke-linecap="round" stroke-linejoin="round"/>
<path d="M6.66699 4.99996V3.33329C6.66699 2.89127 6.84259 2.46734 7.15515 2.15478C7.46771 1.84222 7.89163 1.66663 8.33366 1.66663H11.667C12.109 1.66663 12.5329 1.84222 12.8455 2.15478C13.1581 2.46734 13.3337 2.89127 13.3337 3.33329V4.99996M15.8337 4.99996V16.6666C15.8337 17.1087 15.6581 17.5326 15.3455 17.8451C15.0329 18.1577 14.609 18.3333 14.167 18.3333H5.83366C5.39163 18.3333 4.96771 18.1577 4.65515 17.8451C4.34259 17.5326 4.16699 17.1087 4.16699 16.6666V4.99996H15.8337Z" stroke-width="1.5" stroke-linecap="round" stroke-linejoin="round"/>
<path d="M8.33301 9.16663V14.1666" stroke-width="1.5" stroke-linecap="round" stroke-linejoin="round"/>
<path d="M11.667 9.16663V14.1666" stroke-width="1.5" stroke-linecap="round" stroke-linejoin="round"/>
</symbol><symbol viewBox="0 0 28 30" id="download" xmlns="http://www.w3.org/2000/svg">
<path d="M24.5593 18.75V23.75C24.5593 24.413 24.3176 25.0489 23.8875 25.5178C23.4573 25.9866 22.8739 26.25 22.2655 26.25H6.20928C5.60094 26.25 5.01751 25.9866 4.58735 25.5178C4.15719 25.0489 3.91553 24.413 3.91553 23.75V18.75" stroke-width="3" stroke-linecap="round" stroke-linejoin="round"/>
<path d="M8.50342 12.5L14.2378 18.75L19.9722 12.5" stroke-width="3" stroke-linecap="round" stroke-linejoin="round"/>
<path d="M14.2378 18.75V3.75" stroke-width="3" stroke-linecap="round" stroke-linejoin="round"/>
</symbol><symbol viewBox="0 0 20 20" id="edit" xmlns="http://www.w3.org/2000/svg">
<path d="M3.33398 18.75C3.33398 18.2897 3.70708 17.9166 4.16732 17.9166H15.834C16.2942 17.9166 16.6673 18.2897 16.6673 18.75C16.6673 19.2102 16.2942 19.5833 15.834 19.5833H4.16732C3.70708 19.5833 3.33398 19.2102 3.33398 18.75Z"/>
<path fill-rule="evenodd" clip-rule="evenodd" d="M10.343 3.89525C11.6448 2.59351 13.7553 2.59351 15.0571 3.89525L15.6882 4.52638C16.9899 5.82813 16.9899 7.93869 15.6882 9.24044L9.93311 14.9955C9.70192 15.2267 9.40783 15.3848 9.08746 15.4501L5.33448 16.215C4.16401 16.4536 3.12999 15.4196 3.36852 14.2491L4.13336 10.496C4.19865 10.1756 4.35674 9.8815 4.58795 9.65029L10.343 3.89525ZM13.8786 5.07377C13.2277 4.42289 12.1724 4.42289 11.5215 5.07376L11.1785 5.4168L14.1666 8.40495L14.5097 8.06192C15.1606 7.41105 15.1606 6.35577 14.5097 5.7049L13.8786 5.07377ZM7.01181 9.58346L9.99998 6.59531L12.9881 9.58346L9.99997 12.5716L7.01181 9.58346ZM5.8333 10.762L5.76646 10.8288L5.00162 14.5819L8.75461 13.817L8.82146 13.7501L5.8333 10.762Z"/>
</symbol><symbol viewBox="0 0 30 30" id="filter" xmlns="http://www.w3.org/2000/svg">
<path d="M27.5 3.75H2.5L12.5 15.575V23.75L17.5 26.25V15.575L27.5 3.75Z" stroke-width="2.5" stroke-linecap="round" stroke-linejoin="round"/>
</symbol><symbol viewBox="0 0 24 24" id="folder" xmlns="http://www.w3.org/2000/svg">
<path d="M22 19C22 19.5304 21.7893 20.0391 21.4142 20.4142C21.0391 20.7893 20.5304 21 20 21H4C3.46957 21 2.96086 20.7893 2.58579 20.4142C2.21071 20.0391 2 19.5304 2 19V5C2 4.46957 2.21071 3.96086 2.58579 3.58579C2.96086 3.21071 3.46957 3 4 3H9L11 6H20C20.5304 6 21.0391 6.21071 21.4142 6.58579C21.7893 6.96086 22 7.46957 22 8V19Z" stroke-width="2" stroke-linecap="round" stroke-linejoin="round"/>
</symbol><symbol viewBox="0 0 16 17" id="fullscreen" xmlns="http://www.w3.org/2000/svg">
<path d="M1 6.82004V4.92004C1 3.26319 2.34315 1.92004 4 1.92004H5.9" stroke-width="2" stroke-linecap="round"/>
<path d="M15 6.82004V4.92004C15 3.26319 13.6569 1.92004 12 1.92004H10.1" stroke-width="2" stroke-linecap="round"/>
<path d="M1 11.02V12.92C1 14.5769 2.34315 15.92 4 15.92H5.9" stroke-width="2" stroke-linecap="round"/>
<path d="M15 11.02V12.92C15 14.5769 13.6569 15.92 12 15.92H10.1" stroke-width="2" stroke-linecap="round"/>
</symbol><symbol viewBox="0 0 24 24" id="geolocation" xmlns="http://www.w3.org/2000/svg">
<path d="M21 10C21 17 12 23 12 23C12 23 3 17 3 10C3 7.61305 3.94821 5.32387 5.63604 3.63604C7.32387 1.94821 9.61305 1 12 1C14.3869 1 16.6761 1.94821 18.364 3.63604C20.0518 5.32387 21 7.61305 21 10Z" stroke-width="2" stroke-linecap="round" stroke-linejoin="round"/>
<path d="M12 13C13.6569 13 15 11.6569 15 10C15 8.34315 13.6569 7 12 7C10.3431 7 9 8.34315 9 10C9 11.6569 10.3431 13 12 13Z" stroke-width="2" stroke-linecap="round" stroke-linejoin="round"/>
</symbol><symbol viewBox="0 0 24 24" id="keyloger" xmlns="http://www.w3.org/2000/svg">
<path fill-rule="evenodd" clip-rule="evenodd" d="M7.67776 3.82336H17.2207C18.1263 3.82335 18.8737 3.82334 19.4825 3.87308C20.1149 3.92475 20.6962 4.03563 21.2422 4.31384C22.0889 4.74527 22.7773 5.43368 23.2087 6.28041C23.4869 6.82641 23.5978 7.4077 23.6495 8.04006C23.6992 8.6489 23.6992 9.3963 23.6992 10.3019V15.3449C23.6992 16.2504 23.6992 16.9978 23.6495 17.6067C23.5978 18.239 23.4869 18.8203 23.2087 19.3663C22.7773 20.2131 22.0889 20.9015 21.2422 21.3329C20.6962 21.6111 20.1149 21.722 19.4825 21.7736C18.8737 21.8234 18.1263 21.8234 17.2207 21.8234H7.67778C6.77218 21.8234 6.02477 21.8234 5.41592 21.7736C4.78356 21.722 4.20226 21.6111 3.65626 21.3329C2.80953 20.9015 2.12112 20.2131 1.68969 19.3663C1.41149 18.8203 1.3006 18.239 1.24894 17.6067C1.19919 16.9978 1.1992 16.2504 1.19922 15.3448V10.3019C1.1992 9.39631 1.19919 8.64891 1.24894 8.04006C1.3006 7.4077 1.41149 6.82641 1.68969 6.28041C2.12112 5.43368 2.80953 4.74527 3.65626 4.31384C4.20226 4.03563 4.78356 3.92475 5.41592 3.87308C6.02476 3.82334 6.77217 3.82335 7.67776 3.82336ZM5.59914 6.11561C5.10592 6.15591 4.85369 6.22895 4.67774 6.3186C4.25438 6.53432 3.91017 6.87852 3.69445 7.30189C3.6048 7.47784 3.53176 7.73007 3.49146 8.22328C3.45009 8.72963 3.44922 9.38471 3.44922 10.3484V15.2984C3.44922 16.262 3.45009 16.9171 3.49146 17.4234C3.53176 17.9167 3.6048 18.1689 3.69445 18.3448C3.91017 18.7682 4.25438 19.1124 4.67774 19.3281C4.85369 19.4178 5.10592 19.4908 5.59914 19.5311C6.10549 19.5725 6.76057 19.5734 7.72422 19.5734H17.1742C18.1379 19.5734 18.7929 19.5725 19.2993 19.5311C19.7925 19.4908 20.0447 19.4178 20.2207 19.3281C20.6441 19.1124 20.9883 18.7682 21.204 18.3448C21.2936 18.1689 21.3667 17.9167 21.407 17.4234C21.4483 16.9171 21.4492 16.262 21.4492 15.2984V10.3484C21.4492 9.38471 21.4483 8.72963 21.407 8.22328C21.3667 7.73007 21.2936 7.47784 21.204 7.30189C20.9883 6.87852 20.6441 6.53432 20.2207 6.3186C20.0447 6.22895 19.7925 6.15591 19.2993 6.11561C18.7929 6.07424 18.1379 6.07337 17.1742 6.07337H7.72422C6.76057 6.07337 6.10549 6.07424 5.59914 6.11561Z"/>
<path d="M15.8242 9.44836C15.2029 9.44836 14.6992 9.95204 14.6992 10.5734C14.6992 11.1947 15.2029 11.6984 15.8242 11.6984H18.0742C18.6955 11.6984 19.1992 11.1947 19.1992 10.5734C19.1992 9.95204 18.6955 9.44836 18.0742 9.44836H15.8242Z"/>
<path d="M5.69922 15.0734C5.69922 14.452 6.2029 13.9484 6.82422 13.9484C7.44554 13.9484 7.94922 14.452 7.94922 15.0734C7.94922 15.6947 7.44554 16.1984 6.82422 16.1984C6.2029 16.1984 5.69922 15.6947 5.69922 15.0734Z"/>
<path d="M11.3242 13.9484C10.7029 13.9484 10.1992 14.452 10.1992 15.0734C10.1992 15.6947 10.7029 16.1984 11.3242 16.1984H13.5742C14.1955 16.1984 14.6992 15.6947 14.6992 15.0734C14.6992 14.452 14.1955 13.9484 13.5742 13.9484H11.3242Z"/>
<path d="M18.0742 13.9484C17.4529 13.9484 16.9492 14.452 16.9492 15.0734C16.9492 15.6947 17.4529 16.1984 18.0742 16.1984C18.6955 16.1984 19.1992 15.6947 19.1992 15.0734C19.1992 14.452 18.6955 13.9484 18.0742 13.9484Z"/>
<path d="M10.1992 10.5734C10.1992 9.95204 10.7029 9.44836 11.3242 9.44836C11.9455 9.44836 12.4492 9.95204 12.4492 10.5734C12.4492 11.1947 11.9455 11.6984 11.3242 11.6984C10.7029 11.6984 10.1992 11.1947 10.1992 10.5734Z"/>
<path d="M6.82422 9.44836C6.2029 9.44836 5.69922 9.95204 5.69922 10.5734C5.69922 11.1947 6.2029 11.6984 6.82422 11.6984C7.44554 11.6984 7.94922 11.1947 7.94922 10.5734C7.94922 9.95204 7.44554 9.44836 6.82422 9.44836Z"/>
</symbol><symbol viewBox="0 0 12 16" id="marker" xmlns="http://www.w3.org/2000/svg">
<path d="M5.99879 0C4.40851 0.00161524 2.88381 0.638459 1.7592 1.77081C0.634596 2.90316 0.00192524 4.43853 0 6.04008C0 9.87067 5.34667 15.3004 5.57576 15.5287C5.68828 15.642 5.84088 15.7056 6 15.7056C6.15912 15.7056 6.31172 15.642 6.42424 15.5287C6.65212 15.3004 12 9.87067 12 6.04008C11.9981 4.43811 11.3651 2.90237 10.2399 1.76995C9.11481 0.637527 7.58948 0.000968931 5.99879 0ZM5.99879 3.92703C6.41427 3.92606 6.82069 4.04927 7.16659 4.28105C7.5125 4.51284 7.78234 4.84278 7.94195 5.22909C8.10155 5.61541 8.14375 6.04074 8.06319 6.45122C7.98264 6.8617 7.78295 7.23888 7.48942 7.53501C7.19589 7.83114 6.82171 8.03289 6.41425 8.11473C6.0068 8.19657 5.58439 8.15481 5.20052 7.99474C4.81664 7.83468 4.48856 7.5635 4.2578 7.21554C4.02705 6.86759 3.904 6.4585 3.90424 6.04008C3.9052 5.48059 4.12607 4.94424 4.51856 4.54828C4.91105 4.15232 5.44324 3.92896 5.99879 3.92703Z"/>
</symbol><symbol viewBox="0 0 24 24" id="media" xmlns="http://www.w3.org/2000/svg">
<path d="M19 3H5C3.89543 3 3 3.89543 3 5V19C3 20.1046 3.89543 21 5 21H19C20.1046 21 21 20.1046 21 19V5C21 3.89543 20.1046 3 19 3Z" stroke-width="2" stroke-linecap="round" stroke-linejoin="round"/>
<path d="M8.5 10C9.32843 10 10 9.32843 10 8.5C10 7.67157 9.32843 7 8.5 7C7.67157 7 7 7.67157 7 8.5C7 9.32843 7.67157 10 8.5 10Z" stroke-width="1.5" stroke-linecap="round" stroke-linejoin="round"/>
<path d="M21 15L16 10L5 21" stroke-width="2" stroke-linecap="round" stroke-linejoin="round"/>
</symbol><symbol viewBox="0 0 24 24" id="messengers" xmlns="http://www.w3.org/2000/svg">
<path d="M17 12.3333C17 12.7459 16.8361 13.1416 16.5444 13.4333C16.2527 13.725 15.857 13.8889 15.4444 13.8889H6.11111L3 17V4.55556C3 4.143 3.16389 3.74733 3.45561 3.45561C3.74733 3.16389 4.143 3 4.55556 3H15.4444C15.857 3 16.2527 3.16389 16.5444 3.45561C16.8361 3.74733 17 4.143 17 4.55556V12.3333Z" stroke-width="2" stroke-linecap="round" stroke-linejoin="round"/>
<path d="M10 17.3333C10 17.6575 10.1288 17.9684 10.358 18.1976C10.5872 18.4268 10.8981 18.5556 11.2222 18.5556H18.5556L21 21V11.2222C21 10.8981 20.8712 10.5872 20.642 10.358C20.4128 10.1288 20.1019 10 19.7778 10H11.2222C10.8981 10 10.5872 10.1288 10.358 10.358C10.1288 10.5872 10 10.8981 10 11.2222V17.3333Z" stroke-width="2" stroke-linecap="round" stroke-linejoin="round"/>
</symbol><symbol viewBox="0 0 24 24" id="notification" xmlns="http://www.w3.org/2000/svg">
<path d="M21 11.5C21.0034 12.8199 20.6951 14.1219 20.1 15.3C19.3944 16.7118 18.3098 17.8992 16.9674 18.7293C15.6251 19.5594 14.0782 19.9994 12.5 20C11.1801 20.0035 9.87812 19.6951 8.7 19.1L3 21L4.9 15.3C4.30493 14.1219 3.99656 12.8199 4 11.5C4.00061 9.92179 4.44061 8.37488 5.27072 7.03258C6.10083 5.69028 7.28825 4.6056 8.7 3.90003C9.87812 3.30496 11.1801 2.99659 12.5 3.00003H13C15.0843 3.11502 17.053 3.99479 18.5291 5.47089C20.0052 6.94699 20.885 8.91568 21 11V11.5Z" stroke-width="2" stroke-linecap="round" stroke-linejoin="round"/>
</symbol><symbol viewBox="0 0 24 24" id="notification-bell" xmlns="http://www.w3.org/2000/svg">
<g id="aualarm-bell-1 1">
<g id="auGroup 51">
<path id="auVector" d="M13.7787 20.5H10.052C10.0009 20.5001 9.95155 20.519 9.91344 20.5531C9.87533 20.5872 9.8511 20.6342 9.84537 20.685C9.83629 20.7619 9.83184 20.8393 9.83204 20.9167C9.83204 21.4692 10.0515 21.9991 10.4422 22.3898C10.8329 22.7805 11.3628 23 11.9154 23C12.4679 23 12.9978 22.7805 13.3885 22.3898C13.7792 21.9991 13.9987 21.4692 13.9987 20.9167C13.9989 20.8393 13.9945 20.7619 13.9854 20.685C13.98 20.634 13.9559 20.5869 13.9177 20.5527C13.8795 20.5185 13.83 20.4997 13.7787 20.5Z"/>
<path id="auVector_2" d="M19.7875 19.0633C18.8337 17.1676 18.3355 15.0755 18.3325 12.9533V12.3133C18.3556 11.0719 18.074 9.84379 17.5123 8.73646C16.9507 7.62914 16.1261 6.6764 15.1108 5.96167C14.5195 5.58047 13.8584 5.32044 13.1658 5.19667V4.25C13.1658 3.91848 13.0341 3.60054 12.7997 3.36612C12.5653 3.1317 12.2473 3 11.9158 3C11.5843 3 11.2664 3.1317 11.0319 3.36612C10.7975 3.60054 10.6658 3.91848 10.6658 4.25V5.2075C9.80144 5.3712 8.98763 5.73572 8.28999 6.27167C7.40071 7.00428 6.688 7.92791 6.20483 8.97389C5.72166 10.0199 5.48046 11.1613 5.49915 12.3133V12.9533C5.49612 15.0755 4.99791 17.1676 4.04415 19.0633C4.01235 19.1268 3.99729 19.1973 4.0004 19.2682C4.00351 19.3392 4.02468 19.4081 4.06191 19.4685C4.09914 19.529 4.15119 19.5789 4.21313 19.6136C4.27507 19.6482 4.34484 19.6665 4.41582 19.6667H19.4158C19.4869 19.6666 19.5568 19.6483 19.6189 19.6136C19.6809 19.5789 19.733 19.5289 19.7703 19.4683C19.8075 19.4078 19.8287 19.3387 19.8317 19.2676C19.8347 19.1966 19.8195 19.126 19.7875 19.0625V19.0633Z"/>
</g>
</g>
</symbol><symbol viewBox="0 0 24 24" id="phone" xmlns="http://www.w3.org/2000/svg">
<path d="M21.9994 16.92V19.92C22.0006 20.1985 21.9435 20.4741 21.832 20.7293C21.7204 20.9845 21.5567 21.2136 21.3515 21.4018C21.1463 21.5901 20.904 21.7335 20.6402 21.8227C20.3764 21.9119 20.0968 21.945 19.8194 21.92C16.7423 21.5856 13.7864 20.5341 11.1894 18.85C8.77327 17.3146 6.72478 15.2661 5.18945 12.85C3.49942 10.2412 2.44769 7.27097 2.11944 4.17997C2.09446 3.90344 2.12732 3.62474 2.21595 3.3616C2.30457 3.09846 2.44702 2.85666 2.63421 2.6516C2.82141 2.44653 3.04925 2.28268 3.30324 2.1705C3.55722 2.05831 3.83179 2.00024 4.10945 1.99997H7.10945C7.59475 1.9952 8.06524 2.16705 8.43321 2.48351C8.80118 2.79996 9.04152 3.23942 9.10944 3.71997C9.23607 4.68004 9.47089 5.6227 9.80945 6.52997C9.94399 6.8879 9.97311 7.27689 9.89335 7.65086C9.8136 8.02482 9.62831 8.36809 9.35944 8.63998L8.08945 9.90997C9.513 12.4135 11.5859 14.4864 14.0894 15.91L15.3594 14.64C15.6313 14.3711 15.9746 14.1858 16.3486 14.1061C16.7225 14.0263 17.1115 14.0554 17.4694 14.19C18.3767 14.5285 19.3194 14.7634 20.2794 14.89C20.7652 14.9585 21.2088 15.2032 21.526 15.5775C21.8431 15.9518 22.0116 16.4296 21.9994 16.92Z" stroke-width="2" stroke-linecap="round" stroke-linejoin="round"/>
</symbol><symbol viewBox="0 0 24 24" id="play" xmlns="http://www.w3.org/2000/svg">
<path d="M5 3L19 12L5 21V3Z" stroke-linecap="round" stroke-linejoin="round"/>
</symbol><symbol viewBox="0 0 24 24" id="recording" xmlns="http://www.w3.org/2000/svg">
<path d="M12 22C17.5228 22 22 17.5228 22 12C22 6.47715 17.5228 2 12 2C6.47715 2 2 6.47715 2 12C2 17.5228 6.47715 22 12 22Z" stroke-width="2" stroke-linecap="round" stroke-linejoin="round"/>
<path d="M12 18C15.3137 18 18 15.3137 18 12C18 8.68629 15.3137 6 12 6C8.68629 6 6 8.68629 6 12C6 15.3137 8.68629 18 12 18Z" stroke-width="1.5" stroke-linecap="round" stroke-linejoin="round"/>
</symbol><symbol viewBox="0 0 24 24" id="settings" xmlns="http://www.w3.org/2000/svg">
<g clip-path="url(#azclip0_406_1677)">
<path d="M19.4 15C19.2669 15.3016 19.2272 15.6362 19.286 15.9606C19.3448 16.285 19.4995 16.5843 19.73 16.82L19.79 16.88C19.976 17.0657 20.1235 17.2863 20.2241 17.5291C20.3248 17.7719 20.3766 18.0322 20.3766 18.295C20.3766 18.5578 20.3248 18.8181 20.2241 19.0609C20.1235 19.3037 19.976 19.5243 19.79 19.71C19.6043 19.896 19.3837 20.0435 19.1409 20.1441C18.8981 20.2448 18.6378 20.2966 18.375 20.2966C18.1122 20.2966 17.8519 20.2448 17.6091 20.1441C17.3663 20.0435 17.1457 19.896 16.96 19.71L16.9 19.65C16.6643 19.4195 16.365 19.2648 16.0406 19.206C15.7162 19.1472 15.3816 19.1869 15.08 19.32C14.7842 19.4468 14.532 19.6572 14.3543 19.9255C14.1766 20.1938 14.0813 20.5082 14.08 20.83V21C14.08 21.5304 13.8693 22.0391 13.4942 22.4142C13.1191 22.7893 12.6104 23 12.08 23C11.5496 23 11.0409 22.7893 10.6658 22.4142C10.2907 22.0391 10.08 21.5304 10.08 21V20.91C10.0723 20.579 9.96512 20.258 9.77251 19.9887C9.5799 19.7194 9.31074 19.5143 9 19.4C8.69838 19.2669 8.36381 19.2272 8.03941 19.286C7.71502 19.3448 7.41568 19.4995 7.18 19.73L7.12 19.79C6.93425 19.976 6.71368 20.1235 6.47088 20.2241C6.22808 20.3248 5.96783 20.3766 5.705 20.3766C5.44217 20.3766 5.18192 20.3248 4.93912 20.2241C4.69632 20.1235 4.47575 19.976 4.29 19.79C4.10405 19.6043 3.95653 19.3837 3.85588 19.1409C3.75523 18.8981 3.70343 18.6378 3.70343 18.375C3.70343 18.1122 3.75523 17.8519 3.85588 17.6091C3.95653 17.3663 4.10405 17.1457 4.29 16.96L4.35 16.9C4.58054 16.6643 4.73519 16.365 4.794 16.0406C4.85282 15.7162 4.81312 15.3816 4.68 15.08C4.55324 14.7842 4.34276 14.532 4.07447 14.3543C3.80618 14.1766 3.49179 14.0813 3.17 14.08H3C2.46957 14.08 1.96086 13.8693 1.58579 13.4942C1.21071 13.1191 1 12.6104 1 12.08C1 11.5496 1.21071 11.0409 1.58579 10.6658C1.96086 10.2907 2.46957 10.08 3 10.08H3.09C3.42099 10.0723 3.742 9.96512 4.0113 9.77251C4.28059 9.5799 4.48572 9.31074 4.6 9C4.73312 8.69838 4.77282 8.36381 4.714 8.03941C4.65519 7.71502 4.50054 7.41568 4.27 7.18L4.21 7.12C4.02405 6.93425 3.87653 6.71368 3.77588 6.47088C3.67523 6.22808 3.62343 5.96783 3.62343 5.705C3.62343 5.44217 3.67523 5.18192 3.77588 4.93912C3.87653 4.69632 4.02405 4.47575 4.21 4.29C4.39575 4.10405 4.61632 3.95653 4.85912 3.85588C5.10192 3.75523 5.36217 3.70343 5.625 3.70343C5.88783 3.70343 6.14808 3.75523 6.39088 3.85588C6.63368 3.95653 6.85425 4.10405 7.04 4.29L7.1 4.35C7.33568 4.58054 7.63502 4.73519 7.95941 4.794C8.28381 4.85282 8.61838 4.81312 8.92 4.68H9C9.29577 4.55324 9.54802 4.34276 9.72569 4.07447C9.90337 3.80618 9.99872 3.49179 10 3.17V3C10 2.46957 10.2107 1.96086 10.5858 1.58579C10.9609 1.21071 11.4696 1 12 1C12.5304 1 13.0391 1.21071 13.4142 1.58579C13.7893 1.96086 14 2.46957 14 3V3.09C14.0013 3.41179 14.0966 3.72618 14.2743 3.99447C14.452 4.26276 14.7042 4.47324 15 4.6C15.3016 4.73312 15.6362 4.77282 15.9606 4.714C16.285 4.65519 16.5843 4.50054 16.82 4.27L16.88 4.21C17.0657 4.02405 17.2863 3.87653 17.5291 3.77588C17.7719 3.67523 18.0322 3.62343 18.295 3.62343C18.5578 3.62343 18.8181 3.67523 19.0609 3.77588C19.3037 3.87653 19.5243 4.02405 19.71 4.21C19.896 4.39575 20.0435 4.61632 20.1441 4.85912C20.2448 5.10192 20.2966 5.36217 20.2966 5.625C20.2966 5.88783 20.2448 6.14808 20.1441 6.39088C20.0435 6.63368 19.896 6.85425 19.71 7.04L19.65 7.1C19.4195 7.33568 19.2648 7.63502 19.206 7.95941C19.1472 8.28381 19.1869 8.61838 19.32 8.92V9C19.4468 9.29577 19.6572 9.54802 19.9255 9.72569C20.1938 9.90337 20.5082 9.99872 20.83 10H21C21.5304 10 22.0391 10.2107 22.4142 10.5858C22.7893 10.9609 23 11.4696 23 12C23 12.5304 22.7893 13.0391 22.4142 13.4142C22.0391 13.7893 21.5304 14 21 14H20.91C20.5882 14.0013 20.2738 14.0966 20.0055 14.2743C19.7372 14.452 19.5268 14.7042 19.4 15V15Z" stroke-width="2" stroke-linecap="round" stroke-linejoin="round"/>
<path d="M12 15C13.6569 15 15 13.6569 15 12C15 10.3431 13.6569 9 12 9C10.3431 9 9 10.3431 9 12C9 13.6569 10.3431 15 12 15Z" stroke-width="2" stroke-linecap="round" stroke-linejoin="round"/>
</g>
<defs>
<clipPath id="azclip0_406_1677">
<rect width="24" height="24"/>
</clipPath>
</defs>
</symbol><symbol viewBox="0 0 24 24" id="sms" xmlns="http://www.w3.org/2000/svg">
<path d="M21 15C21 15.5304 20.7893 16.0391 20.4142 16.4142C20.0391 16.7893 19.5304 17 19 17H7L3 21V5C3 4.46957 3.21071 3.96086 3.58579 3.58579C3.96086 3.21071 4.46957 3 5 3H19C19.5304 3 20.0391 3.21071 20.4142 3.58579C20.7893 3.96086 21 4.46957 21 5V15Z" stroke-width="2" stroke-linecap="round" stroke-linejoin="round"/>
</symbol><symbol viewBox="0 0 17 16" id="success" xmlns="http://www.w3.org/2000/svg">
<path d="M15.1668 7.38668V8.00001C15.166 9.43763 14.7005 10.8365 13.8397 11.9879C12.9789 13.1393 11.769 13.9817 10.3904 14.3893C9.01178 14.7969 7.53834 14.7479 6.18981 14.2497C4.84128 13.7515 3.68993 12.8307 2.90747 11.6247C2.12501 10.4187 1.75336 8.99205 1.84795 7.55755C1.94254 6.12305 2.4983 4.75756 3.43235 3.66473C4.3664 2.57189 5.62869 1.81027 7.03096 1.49344C8.43322 1.17662 9.90034 1.32157 11.2135 1.90668" stroke-width="1.5" stroke-linecap="round" stroke-linejoin="round"/>
<path d="M15.1667 2.66669L8.5 9.34002L6.5 7.34002" stroke-width="1.5" stroke-linecap="round" stroke-linejoin="round"/>
</symbol><symbol viewBox="0 0 30 30" id="x" xmlns="http://www.w3.org/2000/svg">
<path d="M23.1 6L6 24" stroke-width="4" stroke-linecap="round" stroke-linejoin="round"/>
<path d="M6 6L23.1 24" stroke-width="4" stroke-linecap="round" stroke-linejoin="round"/>
</symbol></svg>