<svg width="30" height="24" viewBox="0 0 30 24" fill="none" xmlns="http://www.w3.org/2000/svg">
<path d="M14 1L8 1L8 7" stroke="#CF3F3F" stroke-width="2" stroke-linecap="round" stroke-linejoin="round"/>
<path d="M15 8L8 1" stroke="#CF3F3F" stroke-width="2" stroke-linecap="round" stroke-linejoin="round"/>
<path d="M21.5 1.5L15 8" stroke="#CF3F3F" stroke-width="2" stroke-linecap="round" stroke-linejoin="round"/>
<path d="M4.54117 20.6044L2.41985 18.483C2.22212 18.2869 2.06754 18.0516 1.96599 17.7923C1.86445 17.533 1.81818 17.2553 1.83017 16.977C1.84215 16.6988 1.91211 16.4261 2.03557 16.1765C2.15903 15.9268 2.33327 15.7057 2.54713 15.5273C4.95944 13.5879 7.79306 12.2413 10.8203 11.5958C13.6144 10.973 16.5114 10.973 19.3056 11.5958C22.3453 12.2455 25.1892 13.602 27.607 15.5556C27.8202 15.7335 27.994 15.9538 28.1174 16.2025C28.2408 16.4513 28.3111 16.723 28.3237 17.0003C28.3364 17.2777 28.2911 17.5547 28.1908 17.8136C28.0906 18.0725 27.9375 18.3077 27.7413 18.5042L25.62 20.6256C25.2802 20.9721 24.826 21.1833 24.3421 21.2197C23.8581 21.2561 23.3774 21.1153 22.9896 20.8236C22.2212 20.2342 21.3886 19.7337 20.5076 19.3316C20.1594 19.1736 19.8638 18.9191 19.6557 18.5983C19.4477 18.2775 19.336 17.9037 19.3338 17.5214V15.7253C16.557 14.9616 13.6254 14.9616 10.8486 15.7253V17.5214C10.8464 17.9037 10.7347 18.2775 10.5267 18.5983C10.3186 18.9191 10.023 19.1736 9.67477 19.3316C8.79384 19.7337 7.96123 20.2342 7.19282 20.8236C6.80088 21.1186 6.31417 21.2593 5.82526 21.2189C5.33635 21.1784 4.87935 20.9597 4.54117 20.6044Z" stroke="#CF3F3F" stroke-width="2" stroke-linecap="round" stroke-linejoin="round"/>
</svg>
